<svg id="Layer_1" data-name="Layer 1" xmlns="http://www.w3.org/2000/svg" viewBox="0 0 250.46 248.52"><defs><style>.cls-1{fill:#546d7b;}.cls-2{fill:#9fbecf;}.cls-3{fill:#38b5fd;}.cls-4{fill:#0998ea;}.cls-5,.cls-6{fill:#fff;stroke-miterlimit:10;}.cls-5{stroke:#6d6e71;}.cls-6{stroke:#58595b;}</style></defs><rect class="cls-1" x="119.2" y="54.4" width="12.05" height="190.13"/><rect class="cls-1" x="493.98" y="453.04" width="12.05" height="250.46" transform="translate(703.5 -261.49) rotate(90)"/><rect class="cls-2" x="489.98" y="552.95" width="20.03" height="50.63" transform="translate(703.5 -261.5) rotate(90)"/><rect class="cls-3" width="250.46" height="55.8" rx="22.86"/><path class="cls-4" d="M625.23,372.63V362.7a22.85,22.85,0,0,0-12.53-20.33L386.82,392.7a22.68,22.68,0,0,0,10.89,2.86H602.29A22.94,22.94,0,0,0,625.23,372.63Z" transform="translate(-374.77 -339.76)"/><path class="cls-5" d="M418.63,367.66a12.94,12.94,0,1,1-12.94-12.94A12.94,12.94,0,0,1,418.63,367.66Z" transform="translate(-374.77 -339.76)"/><rect class="cls-1" x="158.9" y="12.69" width="10.39" height="30.43"/><rect class="cls-1" x="187.5" y="12.69" width="10.39" height="30.43"/><rect class="cls-1" x="216.1" y="12.69" width="10.39" height="30.43"/><rect class="cls-3" y="68.8" width="250.46" height="55.8" rx="22.59"/><path class="cls-4" d="M625.23,441.42V431.5a22.84,22.84,0,0,0-12.53-20.33L386.82,461.5a22.68,22.68,0,0,0,10.89,2.86H602.29A22.94,22.94,0,0,0,625.23,441.42Z" transform="translate(-374.77 -339.76)"/><path class="cls-6" d="M418.63,436.46a12.94,12.94,0,1,1-12.94-12.94A12.94,12.94,0,0,1,418.63,436.46Z" transform="translate(-374.77 -339.76)"/><rect class="cls-1" x="158.9" y="81.48" width="10.39" height="30.43"/><rect class="cls-1" x="187.5" y="81.48" width="10.39" height="30.43"/><rect class="cls-1" x="216.1" y="81.48" width="10.39" height="30.43"/><rect class="cls-3" y="137.6" width="250.46" height="55.8" rx="23.46"/><path class="cls-4" d="M625.23,510.22V500.3A22.84,22.84,0,0,0,612.7,480L386.82,530.29a22.69,22.69,0,0,0,10.89,2.87H602.29A22.94,22.94,0,0,0,625.23,510.22Z" transform="translate(-374.77 -339.76)"/><path class="cls-6" d="M418.63,505.26a12.94,12.94,0,1,1-12.94-12.94A12.94,12.94,0,0,1,418.63,505.26Z" transform="translate(-374.77 -339.76)"/><rect class="cls-1" x="158.9" y="150.28" width="10.39" height="30.43"/><rect class="cls-1" x="187.5" y="150.28" width="10.39" height="30.43"/><rect class="cls-1" x="216.1" y="150.28" width="10.39" height="30.43"/></svg>